<svg xmlns="http://www.w3.org/2000/svg" viewBox="0 0 100 120" fill="currentColor">
  <!-- Feather quill - main body -->
  <path d="M78 12C72 8 64 10 58 18C52 26 48 36 44 46C40 56 36 66 30 74C24 82 16 88 8 90C6 90.5 5 92 5.5 94C6 96 8 97 10 96.5C20 94 30 86 38 76C42 70 45 64 48 58L52 64C54 68 58 70 62 68C66 66 68 62 66 58L60 48C64 40 68 32 74 26C80 20 88 18 94 22C96 23 98 22 99 20C100 18 99 16 97 15C92 12 84 12 78 12Z"/>
  <!-- Feather spine/rachis -->
  <path d="M48 58C44 66 40 74 34 82C32 85 30 87 28 89L32 93C34 91 36 89 38 86C44 78 48 70 52 62L48 58Z" fill-opacity="0.3"/>
  <!-- Feather tip -->
  <path d="M28 89L20 106C19 108 20 110 22 111C24 112 26 111 27 109L35 92L28 89Z"/>
</svg>


