<svg xmlns="http://www.w3.org/2000/svg" viewBox="0 0 100 100" fill="currentColor">
  <path d="M75.2 8.5c-2.8-1.4-6.2-0.8-8.3 1.5L35.8 41.1c-0.4 0.4-0.7 0.9-0.9 1.5L25.3 72.4c-0.6 1.7-0.2 3.6 1 4.9s3.1 1.8 4.8 1.3l29.4-10.1c0.6-0.2 1.1-0.5 1.5-0.9l31.2-31.2c2.3-2.3 2.9-5.8 1.4-8.6L75.2 8.5z M58.8 63.4L35.7 71.4l7.6-22.7L58.8 63.4z M67.8 54.4L47.1 40.1 64.3 22.9l20.8 13.3L67.8 54.4z"/>
  <path d="M22.4 91.5c-0.8 0-1.6-0.3-2.2-0.9l-7.8-7.8c-1.2-1.2-1.2-3.2 0-4.4s3.2-1.2 4.4 0l7.8 7.8c1.2 1.2 1.2 3.2 0 4.4C24 91.2 23.2 91.5 22.4 91.5z"/>
</svg>

