<svg width="16" height="16" viewBox="0 0 16 16" fill="none" xmlns="http://www.w3.org/2000/svg">
<rect width="16" height="16" rx="3" fill="#1a1a1a"/>
<path d="M11.5 3C10.3 2.5 8.8 2.8 7.8 4C6.8 5.2 6.2 6.6 5.6 8C5 9.4 4.4 10.8 3.4 11.8C3.2 12 3 12.2 2.8 12.3C2.6 12.4 2.6 12.7 2.8 12.8C3 12.9 3.2 12.9 3.4 12.8C3.7 12.6 4 12.4 4.2 12.1C5.2 11 5.8 9.6 6.4 8.2L7 9.2C7.2 9.6 7.6 9.8 8 9.6C8.4 9.4 8.6 9 8.4 8.6L7.6 7.2C8.2 5.8 8.8 4.4 9.8 3.6C10.8 2.8 12.2 2.8 13 3.4C13.2 3.5 13.4 3.4 13.5 3.2C13.6 3 13.5 2.8 13.3 2.7C12.8 2.3 12.1 2.2 11.5 3Z" fill="#f5f0e6"/>
<path d="M4.2 12.1L3 14.2C2.9 14.4 3 14.6 3.2 14.7C3.4 14.8 3.6 14.7 3.7 14.5L4.9 12.4L4.2 12.1Z" fill="#f5f0e6"/>
</svg>
